Roboto Serif Micro-Bold.ufo
<glyph name="exclam" format="2">
  <advance width="406"/>
  <unicode hex="0021"/>
  <outline>
    <contour>
      <point x="306" y="761" type="curve"/>
      <point x="101" y="761" type="line"/>
      <point x="101" y="572"/>
      <point x="150" y="476"/>
      <point x="150" y="274" type="curve"/>
      <point x="256" y="274" type="line"/>
      <point x="256" y="476"/>
      <point x="306" y="573"/>
    </contour>
    <component base="period" xOffset="3.6428571428571432"/>
  </outline>
</glyph>
<glyph name="plus" format="2">
  <advance width="560"/>
  <unicode hex="002B"/>
  <outline>
    <contour>
      <point x="218" y="579" type="line"/>
      <point x="218" y="394" type="line"/>
      <point x="54" y="394" type="line"/>
      <point x="54" y="275" type="line"/>
      <point x="218" y="275" type="line"/>
      <point x="218" y="90" type="line"/>
      <point x="342" y="90" type="line"/>
      <point x="342" y="275" type="line"/>
      <point x="506" y="275" type="line"/>
      <point x="506" y="394" type="line"/>
      <point x="342" y="394" type="line"/>
      <point x="342" y="579" type="line"/>
    </contour>
  </outline>
</glyph>
<glyph name="comma" format="2">
  <advance width="425"/>
  <unicode hex="002C"/>
  <outline>
    <contour>
      <point x="152" y="-217" type="line"/>
      <point x="278" y="-174"/>
      <point x="349" y="-109"/>
      <point x="349" y="38" type="curve" smooth="yes"/>
      <point x="349" y="153"/>
      <point x="300" y="192"/>
      <point x="211" y="192" type="curve" smooth="yes"/>
      <point x="129" y="192"/>
      <point x="85" y="151"/>
      <point x="85" y="87" type="curve" smooth="yes"/>
      <point x="85" y="25"/>
      <point x="125" y="-3"/>
      <point x="185" y="-3" type="curve" smooth="yes"/>
      <point x="209" y="-3"/>
      <point x="233" y="1"/>
      <point x="254" y="11" type="curve"/>
      <point x="250" y="-85"/>
      <point x="201" y="-111"/>
      <point x="69" y="-136" type="curve"/>
    </contour>
  </outline>
</glyph>
<glyph name="period" format="2">
  <advance width="399"/>
  <unicode hex="002E"/>
  <outline>
    <contour>
      <point x="316" y="88" type="curve" smooth="yes"/>
      <point x="316" y="159"/>
      <point x="270" y="196"/>
      <point x="199" y="196" type="curve" smooth="yes"/>
      <point x="129" y="196"/>
      <point x="83" y="159"/>
      <point x="83" y="88" type="curve" smooth="yes"/>
      <point x="83" y="18"/>
      <point x="129" y="-20"/>
      <point x="199" y="-20" type="curve" smooth="yes"/>
      <point x="270" y="-20"/>
      <point x="316" y="18"/>
    </contour>
  </outline>
</glyph>
<glyph name="zero" format="2">
  <advance width="560"/>
  <unicode hex="0030"/>
  <outline>
    <contour>
      <point x="280" y="-11" type="curve" smooth="yes"/>
      <point x="429" y="-11"/>
      <point x="526" y="91"/>
      <point x="526" y="319" type="curve" smooth="yes"/>
      <point x="526" y="547"/>
      <point x="429" y="649"/>
      <point x="280" y="649" type="curve" smooth="yes"/>
      <point x="131" y="649"/>
      <point x="34" y="547"/>
      <point x="34" y="319" type="curve" smooth="yes"/>
      <point x="34" y="91"/>
      <point x="131" y="-11"/>
    </contour>
    <contour>
      <point x="280" y="71" type="curve" smooth="yes"/>
      <point x="216" y="71"/>
      <point x="193" y="118"/>
      <point x="193" y="319" type="curve" smooth="yes"/>
      <point x="193" y="520"/>
      <point x="216" y="567"/>
      <point x="280" y="567" type="curve" smooth="yes"/>
      <point x="344" y="567"/>
      <point x="367" y="520"/>
      <point x="367" y="319" type="curve" smooth="yes"/>
      <point x="367" y="118"/>
      <point x="344" y="71"/>
    </contour>
  </outline>
</glyph>
<glyph name="one" format="2">
  <advance width="560"/>
  <unicode hex="0031"/>
  <outline>
    <contour>
      <point x="392" y="116" type="curve" smooth="yes"/>
      <point x="392" y="639" type="line"/>
      <point x="258" y="639" type="line"/>
      <point x="223" y="579"/>
      <point x="168" y="553"/>
      <point x="53" y="551" type="curve"/>
      <point x="53" y="443" type="line"/>
      <point x="135" y="442"/>
      <point x="195" y="461"/>
      <point x="226" y="522" type="curve"/>
      <point x="226" y="116" type="line" smooth="yes"/>
      <point x="226" y="81"/>
      <point x="181" y="74"/>
      <point x="119" y="74" type="curve" smooth="yes"/>
      <point x="76" y="74" type="line"/>
      <point x="76" y="0" type="line"/>
      <point x="526" y="0" type="line"/>
      <point x="526" y="74" type="line"/>
      <point x="500" y="74" type="line"/>
      <point x="436" y="74"/>
      <point x="392" y="81"/>
    </contour>
  </outline>
</glyph>
<glyph name="two" format="2">
  <advance width="560"/>
  <unicode hex="0032"/>
  <outline>
    <contour>
      <point x="311" y="121" type="curve" smooth="yes"/>
      <point x="108" y="121" type="line"/>
      <point x="314" y="232"/>
      <point x="496" y="307"/>
      <point x="496" y="469" type="curve"/>
      <point x="496" y="589"/>
      <point x="430" y="649"/>
      <point x="274" y="649" type="curve" smooth="yes"/>
      <point x="166" y="649"/>
      <point x="86" y="607"/>
      <point x="50" y="579" type="curve"/>
      <point x="50" y="412" type="line"/>
      <point x="175" y="412" type="line"/>
      <point x="175" y="555" type="line"/>
      <point x="196" y="562"/>
      <point x="220" y="567"/>
      <point x="245" y="567" type="curve" smooth="yes"/>
      <point x="305" y="567"/>
      <point x="333" y="546"/>
      <point x="333" y="465" type="curve"/>
      <point x="333" y="325"/>
      <point x="245" y="283"/>
      <point x="46" y="158" type="curve"/>
      <point x="46" y="0" type="line"/>
      <point x="511" y="0" type="line"/>
      <point x="511" y="232" type="line"/>
      <point x="433" y="232" type="line"/>
      <point x="424" y="161" type="line" smooth="yes"/>
      <point x="419" y="125"/>
      <point x="390" y="121"/>
    </contour>
  </outline>
</glyph>
<glyph name="three" format="2">
  <advance width="560"/>
  <unicode hex="0033"/>
  <outline>
    <contour>
      <point x="244" y="-8" type="curve" smooth="yes"/>
      <point x="152" y="-8"/>
      <point x="120" y="55"/>
      <point x="95" y="111" type="curve"/>
      <point x="23" y="60" type="line"/>
      <point x="57" y="-25"/>
      <point x="109" y="-90"/>
      <point x="257" y="-90" type="curve" smooth="yes"/>
      <point x="411" y="-90"/>
      <point x="511" y="-33"/>
      <point x="511" y="120" type="curve" smooth="yes"/>
      <point x="511" y="223"/>
      <point x="451" y="274"/>
      <point x="309" y="289" type="curve"/>
      <point x="309" y="301" type="line"/>
      <point x="412" y="321"/>
      <point x="495" y="368"/>
      <point x="495" y="480" type="curve" smooth="yes"/>
      <point x="495" y="600"/>
      <point x="421" y="649"/>
      <point x="278" y="649" type="curve" smooth="yes"/>
      <point x="176" y="649"/>
      <point x="104" y="617"/>
      <point x="63" y="589" type="curve"/>
      <point x="63" y="440" type="line"/>
      <point x="184" y="440" type="line"/>
      <point x="184" y="559" type="line"/>
      <point x="201" y="565"/>
      <point x="225" y="570"/>
      <point x="253" y="570" type="curve" smooth="yes"/>
      <point x="320" y="570"/>
      <point x="345" y="547"/>
      <point x="345" y="472" type="curve" smooth="yes"/>
      <point x="345" y="371"/>
      <point x="302" y="333"/>
      <point x="216" y="333" type="curve" smooth="yes"/>
      <point x="142" y="333" type="line"/>
      <point x="142" y="247" type="line"/>
      <point x="228" y="247" type="line" smooth="yes"/>
      <point x="328" y="247"/>
      <point x="357" y="207"/>
      <point x="357" y="121" type="curve" smooth="yes"/>
      <point x="357" y="12"/>
      <point x="319" y="-8"/>
    </contour>
  </outline>
</glyph>
<glyph name="five" format="2">
  <advance width="560"/>
  <unicode hex="0035"/>
  <outline>
    <contour>
      <point x="259" y="-90" type="curve" smooth="yes"/>
      <point x="424" y="-90"/>
      <point x="514" y="-8"/>
      <point x="514" y="165" type="curve" smooth="yes"/>
      <point x="514" y="314"/>
      <point x="444" y="390"/>
      <point x="315" y="390" type="curve" smooth="yes"/>
      <point x="232" y="390"/>
      <point x="192" y="361"/>
      <point x="165" y="310" type="curve"/>
      <point x="165" y="516" type="line"/>
      <point x="450" y="516" type="line"/>
      <point x="469" y="639" type="line"/>
      <point x="82" y="639" type="line"/>
      <point x="82" y="222" type="line"/>
      <point x="157" y="222" type="line"/>
      <point x="183" y="278"/>
      <point x="205" y="304"/>
      <point x="258" y="304" type="curve" smooth="yes"/>
      <point x="323" y="304"/>
      <point x="353" y="273"/>
      <point x="353" y="165" type="curve" smooth="yes"/>
      <point x="353" y="37"/>
      <point x="316" y="-4"/>
      <point x="242" y="-4" type="curve" smooth="yes"/>
      <point x="149" y="-4"/>
      <point x="126" y="42"/>
      <point x="102" y="105" type="curve"/>
      <point x="27" y="54" type="line"/>
      <point x="60" y="-40"/>
      <point x="114" y="-90"/>
    </contour>
  </outline>
</glyph>
<glyph name="six" format="2">
  <advance width="560"/>
  <unicode hex="0036"/>
  <outline>
    <contour>
      <point x="482" y="652" type="curve"/>
      <point x="470" y="740" type="line"/>
      <point x="173" y="707"/>
      <point x="39" y="574"/>
      <point x="39" y="295" type="curve" smooth="yes"/>
      <point x="39" y="70"/>
      <point x="130" y="-10"/>
      <point x="293" y="-10" type="curve" smooth="yes"/>
      <point x="448" y="-10"/>
      <point x="527" y="78"/>
      <point x="527" y="244" type="curve" smooth="yes"/>
      <point x="527" y="391"/>
      <point x="471" y="465"/>
      <point x="353" y="465" type="curve" smooth="yes"/>
      <point x="279" y="465"/>
      <point x="235" y="431"/>
      <point x="199" y="372" type="curve"/>
      <point x="217" y="574"/>
      <point x="303" y="637"/>
    </contour>
    <contour>
      <point x="196" y="289" type="curve" smooth="yes"/>
      <point x="196" y="300"/>
      <point x="196" y="311"/>
      <point x="197" y="322" type="curve"/>
      <point x="229" y="371"/>
      <point x="252" y="386"/>
      <point x="290" y="386" type="curve" smooth="yes"/>
      <point x="355" y="386"/>
      <point x="367" y="339"/>
      <point x="367" y="237" type="curve" smooth="yes"/>
      <point x="367" y="115"/>
      <point x="351" y="69"/>
      <point x="288" y="69" type="curve" smooth="yes"/>
      <point x="223" y="69"/>
      <point x="196" y="103"/>
    </contour>
  </outline>
</glyph>
<glyph name="nine" format="2">
  <advance width="560"/>
  <unicode hex="0039"/>
  <outline>
    <contour>
      <point x="84" y="-32" type="curve"/>
      <point x="96" y="-120" type="line"/>
      <point x="392" y="-87"/>
      <point x="527" y="50"/>
      <point x="527" y="336" type="curve" smooth="yes"/>
      <point x="527" y="567"/>
      <point x="440" y="649"/>
      <point x="278" y="649" type="curve" smooth="yes"/>
      <point x="123" y="649"/>
      <point x="39" y="569"/>
      <point x="39" y="401" type="curve" smooth="yes"/>
      <point x="39" y="256"/>
      <point x="98" y="177"/>
      <point x="216" y="177" type="curve" smooth="yes"/>
      <point x="288" y="177"/>
      <point x="331" y="212"/>
      <point x="367" y="272" type="curve"/>
      <point x="353" y="51"/>
      <point x="266" y="-17"/>
    </contour>
    <contour>
      <point x="198" y="405" type="curve" smooth="yes"/>
      <point x="198" y="529"/>
      <point x="216" y="570"/>
      <point x="279" y="570" type="curve" smooth="yes"/>
      <point x="343" y="570"/>
      <point x="369" y="535"/>
      <point x="369" y="343" type="curve" smooth="yes"/>
      <point x="369" y="336"/>
      <point x="369" y="328"/>
      <point x="369" y="321" type="curve"/>
      <point x="337" y="271"/>
      <point x="313" y="256"/>
      <point x="275" y="256" type="curve" smooth="yes"/>
      <point x="210" y="256"/>
      <point x="198" y="305"/>
    </contour>
  </outline>
</glyph>
<glyph name="question" format="2">
  <advance width="652"/>
  <unicode hex="003F"/>
  <outline>
    <contour>
      <point x="235" y="431" type="curve"/>
      <point x="235" y="270" type="line"/>
      <point x="371" y="270" type="line"/>
      <point x="371" y="386" type="line"/>
      <point x="490" y="404"/>
      <point x="600" y="447"/>
      <point x="600" y="584" type="curve" smooth="yes"/>
      <point x="600" y="716"/>
      <point x="499" y="762"/>
      <point x="323" y="762" type="curve" smooth="yes"/>
      <point x="206" y="762"/>
      <point x="105" y="722"/>
      <point x="73" y="705" type="curve"/>
      <point x="73" y="540" type="line"/>
      <point x="221" y="540" type="line"/>
      <point x="221" y="674" type="line"/>
      <point x="242" y="679"/>
      <point x="269" y="683"/>
      <point x="302" y="683" type="curve" smooth="yes"/>
      <point x="379" y="683"/>
      <point x="419" y="661"/>
      <point x="419" y="578" type="curve" smooth="yes"/>
      <point x="419" y="460"/>
      <point x="342" y="447"/>
    </contour>
    <component base="period" xOffset="104.53571428571429" yOffset="-1"/>
  </outline>
</glyph>
<glyph name="A" format="2">
  <advance width="773"/>
  <unicode hex="0041"/>
  <anchor x="367.8071428571429" y="721.0" name="top"/>
  <anchor x="580.8071428571428" y="0.0" name="right"/>
  <anchor x="367.8071428571429" y="0.0" name="bottom"/>
  <outline>
    <contour>
      <point x="258" y="84" type="line"/>
      <point x="249" y="84" type="line" smooth="yes"/>
      <point x="201" y="84"/>
      <point x="180" y="94"/>
      <point x="180" y="107" type="curve"/>
      <point x="213" y="218" type="line"/>
      <point x="460" y="218" type="line"/>
      <point x="496" y="95" type="line"/>
      <point x="496" y="88"/>
      <point x="476" y="84"/>
      <point x="427" y="84" type="curve" smooth="yes"/>
      <point x="418" y="84" type="line"/>
      <point x="418" y="0" type="line"/>
      <point x="748" y="0" type="line"/>
      <point x="748" y="84" type="line"/>
      <point x="742" y="84" type="line" smooth="yes"/>
      <point x="707" y="84"/>
      <point x="684" y="97"/>
      <point x="668" y="148" type="curve" smooth="yes"/>
      <point x="491" y="722" type="line"/>
      <point x="278" y="722" type="line"/>
      <point x="102" y="148" type="line" smooth="yes"/>
      <point x="87" y="98"/>
      <point x="64" y="84"/>
      <point x="31" y="84" type="curve" smooth="yes"/>
      <point x="25" y="84" type="line"/>
      <point x="25" y="0" type="line"/>
      <point x="258" y="0" type="line"/>
    </contour>
    <contour>
      <point x="235" y="291" type="line"/>
      <point x="338" y="631" type="line"/>
      <point x="438" y="291" type="line"/>
    </contour>
  </outline>
</glyph>
<glyph name="B" format="2">
  <advance width="772"/>
  <unicode hex="0042"/>
  <outline>
    <contour>
      <point x="453" y="710" type="curve" smooth="yes"/>
      <point x="45" y="710" type="line"/>
      <point x="45" y="626" type="line"/>
      <point x="56" y="626" type="line" smooth="yes"/>
      <point x="91" y="626"/>
      <point x="118" y="619"/>
      <point x="118" y="590" type="curve" smooth="yes"/>
      <point x="118" y="120" type="line" smooth="yes"/>
      <point x="118" y="91"/>
      <point x="91" y="84"/>
      <point x="56" y="84" type="curve" smooth="yes"/>
      <point x="45" y="84" type="line"/>
      <point x="45" y="0" type="line"/>
      <point x="460" y="0" type="line"/>
      <point x="628" y="0"/>
      <point x="718" y="59"/>
      <point x="718" y="196" type="curve"/>
      <point x="718" y="305"/>
      <point x="637" y="348"/>
      <point x="492" y="367" type="curve"/>
      <point x="492" y="381" type="line"/>
      <point x="621" y="394"/>
      <point x="691" y="442"/>
      <point x="691" y="541" type="curve" smooth="yes"/>
      <point x="691" y="661"/>
      <point x="610" y="710"/>
    </contour>
    <contour>
      <point x="301" y="629" type="line"/>
      <point x="416" y="629" type="line" smooth="yes"/>
      <point x="478" y="629"/>
      <point x="507" y="591"/>
      <point x="507" y="526" type="curve" smooth="yes"/>
      <point x="507" y="440"/>
      <point x="477" y="408"/>
      <point x="413" y="408" type="curve" smooth="yes"/>
      <point x="301" y="408" type="line"/>
    </contour>
    <contour>
      <point x="301" y="81" type="line"/>
      <point x="301" y="333" type="line"/>
      <point x="409" y="333" type="line" smooth="yes"/>
      <point x="492" y="333"/>
      <point x="530" y="294"/>
      <point x="530" y="207" type="curve"/>
      <point x="530" y="123"/>
      <point x="494" y="81"/>
      <point x="420" y="81" type="curve" smooth="yes"/>
    </contour>
  </outline>
</glyph>
<glyph name="C" format="2">
  <advance width="779"/>
  <unicode hex="0043"/>
  <outline>
    <contour>
      <point x="421" y="647" type="curve" smooth="yes"/>
      <point x="524" y="647"/>
      <point x="584" y="575"/>
      <point x="614" y="460" type="curve"/>
      <point x="716" y="460" type="line"/>
      <point x="716" y="725" type="line"/>
      <point x="630" y="725" type="line"/>
      <point x="617" y="596" type="line"/>
      <point x="580" y="684"/>
      <point x="510" y="735"/>
      <point x="399" y="735" type="curve" smooth="yes"/>
      <point x="198" y="735"/>
      <point x="49" y="617"/>
      <point x="49" y="355" type="curve" smooth="yes"/>
      <point x="49" y="98"/>
      <point x="191" y="-25"/>
      <point x="410" y="-25" type="curve" smooth="yes"/>
      <point x="590" y="-25"/>
      <point x="681" y="61"/>
      <point x="726" y="211" type="curve"/>
      <point x="648" y="252" type="line"/>
      <point x="615" y="138"/>
      <point x="566" y="63"/>
      <point x="431" y="63" type="curve" smooth="yes"/>
      <point x="297" y="63"/>
      <point x="241" y="136"/>
      <point x="241" y="355" type="curve" smooth="yes"/>
      <point x="241" y="568"/>
      <point x="293" y="647"/>
    </contour>
  </outline>
</glyph>
<glyph name="E" format="2">
  <advance width="725"/>
  <unicode hex="0045"/>
  <anchor x="414.1857142857143" y="741.0" name="top"/>
  <anchor x="483.1857142857143" y="0.0" name="right"/>
  <anchor x="414.1857142857143" y="0.0" name="bottom"/>
  <outline>
    <contour>
      <point x="666" y="225" type="line"/>
      <point x="573" y="225" type="line"/>
      <point x="557" y="128" type="line" smooth="yes"/>
      <point x="550" y="92"/>
      <point x="521" y="83"/>
      <point x="441" y="83" type="curve" smooth="yes"/>
      <point x="301" y="83" type="line"/>
      <point x="301" y="327" type="line"/>
      <point x="556" y="308" type="line"/>
      <point x="556" y="423" type="line"/>
      <point x="301" y="403" type="line"/>
      <point x="301" y="627" type="line"/>
      <point x="442" y="627" type="line" smooth="yes"/>
      <point x="508" y="627"/>
      <point x="541" y="618"/>
      <point x="547" y="582" type="curve" smooth="yes"/>
      <point x="558" y="510" type="line"/>
      <point x="649" y="510" type="line"/>
      <point x="649" y="710" type="line"/>
      <point x="45" y="710" type="line"/>
      <point x="45" y="626" type="line"/>
      <point x="56" y="626" type="line" smooth="yes"/>
      <point x="91" y="626"/>
      <point x="118" y="619"/>
      <point x="118" y="590" type="curve" smooth="yes"/>
      <point x="118" y="120" type="line" smooth="yes"/>
      <point x="118" y="91"/>
      <point x="91" y="84"/>
      <point x="56" y="84" type="curve" smooth="yes"/>
      <point x="45" y="84" type="line"/>
      <point x="45" y="0" type="line"/>
      <point x="666" y="0" type="line"/>
    </contour>
  </outline>
</glyph>
<glyph name="F" format="2">
  <advance width="704"/>
  <unicode hex="0046"/>
  <outline>
    <contour>
      <point x="301" y="627" type="line"/>
      <point x="442" y="627" type="line" smooth="yes"/>
      <point x="508" y="627"/>
      <point x="541" y="618"/>
      <point x="547" y="582" type="curve" smooth="yes"/>
      <point x="558" y="508" type="line"/>
      <point x="649" y="508" type="line"/>
      <point x="649" y="710" type="line"/>
      <point x="45" y="710" type="line"/>
      <point x="45" y="626" type="line"/>
      <point x="56" y="626" type="line" smooth="yes"/>
      <point x="91" y="626"/>
      <point x="118" y="619"/>
      <point x="118" y="590" type="curve" smooth="yes"/>
      <point x="118" y="120" type="line" smooth="yes"/>
      <point x="118" y="91"/>
      <point x="91" y="84"/>
      <point x="56" y="84" type="curve" smooth="yes"/>
      <point x="45" y="84" type="line"/>
      <point x="45" y="0" type="line"/>
      <point x="395" y="0" type="line"/>
      <point x="395" y="84" type="line"/>
      <point x="375" y="84" type="line" smooth="yes"/>
      <point x="337" y="84"/>
      <point x="301" y="87"/>
      <point x="301" y="94" type="curve" smooth="yes"/>
      <point x="301" y="311" type="line"/>
      <point x="556" y="292" type="line"/>
      <point x="556" y="407" type="line"/>
      <point x="301" y="388" type="line"/>
    </contour>
  </outline>
</glyph>
<glyph name="H" format="2">
  <advance width="862"/>
  <unicode hex="0048"/>
  <anchor x="433.45714285714286" y="741.0" name="top"/>
  <anchor x="433.45714285714286" y="0.0" name="bottom"/>
  <outline>
    <contour>
      <point x="45" y="0" type="line"/>
      <point x="369" y="0" type="line"/>
      <point x="369" y="84" type="line"/>
      <point x="361" y="84" type="line" smooth="yes"/>
      <point x="335" y="84"/>
      <point x="301" y="87"/>
      <point x="301" y="94" type="curve" smooth="yes"/>
      <point x="301" y="324" type="line"/>
      <point x="561" y="324" type="line"/>
      <point x="561" y="94" type="line" smooth="yes"/>
      <point x="561" y="87"/>
      <point x="527" y="84"/>
      <point x="501" y="84" type="curve" smooth="yes"/>
      <point x="493" y="84" type="line"/>
      <point x="493" y="0" type="line"/>
      <point x="817" y="0" type="line"/>
      <point x="817" y="84" type="line"/>
      <point x="806" y="84" type="line" smooth="yes"/>
      <point x="771" y="84"/>
      <point x="744" y="91"/>
      <point x="744" y="120" type="curve" smooth="yes"/>
      <point x="744" y="590" type="line" smooth="yes"/>
      <point x="744" y="619"/>
      <point x="771" y="626"/>
      <point x="806" y="626" type="curve" smooth="yes"/>
      <point x="817" y="626" type="line"/>
      <point x="817" y="710" type="line"/>
      <point x="493" y="710" type="line"/>
      <point x="493" y="626" type="line"/>
      <point x="501" y="626" type="line" smooth="yes"/>
      <point x="527" y="626"/>
      <point x="561" y="623"/>
      <point x="561" y="616" type="curve" smooth="yes"/>
      <point x="561" y="408" type="line"/>
      <point x="301" y="408" type="line"/>
      <point x="301" y="616" type="line" smooth="yes"/>
      <point x="301" y="623"/>
      <point x="335" y="626"/>
      <point x="361" y="626" type="curve" smooth="yes"/>
      <point x="369" y="626" type="line"/>
      <point x="369" y="710" type="line"/>
      <point x="45" y="710" type="line"/>
      <point x="45" y="626" type="line"/>
      <point x="56" y="626" type="line" smooth="yes"/>
      <point x="91" y="626"/>
      <point x="118" y="619"/>
      <point x="118" y="590" type="curve" smooth="yes"/>
      <point x="118" y="120" type="line" smooth="yes"/>
      <point x="118" y="91"/>
      <point x="91" y="84"/>
      <point x="56" y="84" type="curve" smooth="yes"/>
      <point x="45" y="84" type="line"/>
    </contour>
  </outline>
</glyph>
<glyph name="I" format="2">
  <advance width="437"/>
  <unicode hex="0049"/>
  <anchor x="208.45714285714286" y="741.0" name="top"/>
  <anchor x="268.45714285714286" y="0.0" name="right"/>
  <anchor x="208.45714285714286" y="0.0" name="bottom"/>
  <outline>
    <contour>
      <point x="127" y="120" type="line" smooth="yes"/>
      <point x="127" y="91"/>
      <point x="100" y="84"/>
      <point x="65" y="84" type="curve" smooth="yes"/>
      <point x="45" y="84" type="line"/>
      <point x="45" y="0" type="line"/>
      <point x="392" y="0" type="line"/>
      <point x="392" y="84" type="line"/>
      <point x="372" y="84" type="line" smooth="yes"/>
      <point x="337" y="84"/>
      <point x="310" y="91"/>
      <point x="310" y="120" type="curve" smooth="yes"/>
      <point x="310" y="590" type="line" smooth="yes"/>
      <point x="310" y="619"/>
      <point x="337" y="626"/>
      <point x="372" y="626" type="curve" smooth="yes"/>
      <point x="392" y="626" type="line"/>
      <point x="392" y="710" type="line"/>
      <point x="45" y="710" type="line"/>
      <point x="45" y="626" type="line"/>
      <point x="65" y="626" type="line" smooth="yes"/>
      <point x="100" y="626"/>
      <point x="127" y="619"/>
      <point x="127" y="590" type="curve" smooth="yes"/>
    </contour>
  </outline>
</glyph>
<glyph name="J" format="2">
  <advance width="707"/>
  <unicode hex="004A"/>
  <anchor x="452.54285714285714" y="741.0" name="top"/>
  <outline>
    <contour>
      <point x="300" y="710" type="line"/>
      <point x="300" y="626" type="line"/>
      <point x="328" y="626" type="line" smooth="yes"/>
      <point x="364" y="626"/>
      <point x="397" y="619"/>
      <point x="397" y="590" type="curve" smooth="yes"/>
      <point x="397" y="228" type="line" smooth="yes"/>
      <point x="397" y="97"/>
      <point x="357" y="62"/>
      <point x="279" y="62" type="curve" smooth="yes"/>
      <point x="247" y="62"/>
      <point x="218" y="69"/>
      <point x="194" y="78" type="curve"/>
      <point x="194" y="258" type="line"/>
      <point x="45" y="258" type="line"/>
      <point x="45" y="46" type="line"/>
      <point x="70" y="23"/>
      <point x="159" y="-25"/>
      <point x="288" y="-25" type="curve" smooth="yes"/>
      <point x="466" y="-25"/>
      <point x="580" y="49"/>
      <point x="580" y="234" type="curve" smooth="yes"/>
      <point x="580" y="590" type="line" smooth="yes"/>
      <point x="580" y="619"/>
      <point x="606" y="626"/>
      <point x="642" y="626" type="curve" smooth="yes"/>
      <point x="662" y="626" type="line"/>
      <point x="662" y="710" type="line"/>
    </contour>
  </outline>
</glyph>
<glyph name="K" format="2">
  <advance width="849"/>
  <unicode hex="004B"/>
  <anchor x="398.54285714285714" y="741.0" name="top"/>
  <anchor x="398.54285714285714" y="0.0" name="bottom"/>
  <outline>
    <contour>
      <point x="45" y="0" type="line"/>
      <point x="362" y="0" type="line"/>
      <point x="362" y="84" type="line"/>
      <point x="355" y="84" type="line" smooth="yes"/>
      <point x="332" y="84"/>
      <point x="301" y="87"/>
      <point x="301" y="94" type="curve" smooth="yes"/>
      <point x="301" y="616" type="line" smooth="yes"/>
      <point x="301" y="623"/>
      <point x="332" y="626"/>
      <point x="364" y="626" type="curve" smooth="yes"/>
      <point x="376" y="626" type="line"/>
      <point x="376" y="710" type="line"/>
      <point x="45" y="710" type="line"/>
      <point x="45" y="626" type="line"/>
      <point x="56" y="626" type="line" smooth="yes"/>
      <point x="91" y="626"/>
      <point x="118" y="619"/>
      <point x="118" y="590" type="curve" smooth="yes"/>
      <point x="118" y="120" type="line" smooth="yes"/>
      <point x="118" y="91"/>
      <point x="91" y="84"/>
      <point x="56" y="84" type="curve" smooth="yes"/>
      <point x="45" y="84" type="line"/>
    </contour>
    <contour>
      <point x="470" y="0" type="line"/>
      <point x="823" y="0" type="line"/>
      <point x="823" y="84" type="line"/>
      <point x="809" y="84" type="line" smooth="yes"/>
      <point x="787" y="84"/>
      <point x="770" y="87"/>
      <point x="755" y="105" type="curve" smooth="yes"/>
      <point x="501" y="420" type="line"/>
      <point x="685" y="597" type="line" smooth="yes"/>
      <point x="708" y="618"/>
      <point x="732" y="626"/>
      <point x="764" y="626" type="curve" smooth="yes"/>
      <point x="789" y="626" type="line"/>
      <point x="789" y="710" type="line"/>
      <point x="497" y="710" type="line"/>
      <point x="497" y="626" type="line"/>
      <point x="512" y="626" type="line" smooth="yes"/>
      <point x="548" y="626"/>
      <point x="592" y="622"/>
      <point x="592" y="615" type="curve"/>
      <point x="335" y="372" type="line"/>
      <point x="335" y="348" type="line"/>
      <point x="539" y="94" type="line"/>
      <point x="539" y="87"/>
      <point x="510" y="84"/>
      <point x="477" y="84" type="curve" smooth="yes"/>
      <point x="470" y="84" type="line"/>
    </contour>
  </outline>
</glyph>
<glyph name="L" format="2">
  <advance width="698"/>
  <unicode hex="004C"/>
  <anchor x="401.54285714285714" y="741.0" name="top"/>
  <anchor x="496.54285714285714" y="710.0" name="right"/>
  <anchor x="496.54285714285714" y="410.0" name="mid"/>
  <anchor x="401.54285714285714" y="0.0" name="bottom"/>
  <outline>
    <contour>
      <point x="391" y="710" type="line"/>
      <point x="45" y="710" type="line"/>
      <point x="45" y="626" type="line"/>
      <point x="56" y="626" type="line" smooth="yes"/>
      <point x="91" y="626"/>
      <point x="118" y="619"/>
      <point x="118" y="590" type="curve" smooth="yes"/>
      <point x="118" y="120" type="line" smooth="yes"/>
      <point x="118" y="91"/>
      <point x="91" y="84"/>
      <point x="56" y="84" type="curve" smooth="yes"/>
      <point x="45" y="84" type="line"/>
      <point x="45" y="0" type="line"/>
      <point x="655" y="0" type="line"/>
      <point x="655" y="263" type="line"/>
      <point x="562" y="263" type="line"/>
      <point x="546" y="128" type="line" smooth="yes"/>
      <point x="542" y="92"/>
      <point x="510" y="83"/>
      <point x="430" y="83" type="curve" smooth="yes"/>
      <point x="301" y="83" type="line"/>
      <point x="301" y="590" type="line" smooth="yes"/>
      <point x="301" y="619"/>
      <point x="329" y="626"/>
      <point x="372" y="626" type="curve" smooth="yes"/>
      <point x="391" y="626" type="line"/>
    </contour>
  </outline>
</glyph>
<glyph name="M" format="2">
  <advance width="1028"/>
  <unicode hex="004D"/>
  <anchor x="488.35714285714283" y="0.0" name="bottom"/>
  <outline>
    <contour>
      <point x="45" y="0" type="line"/>
      <point x="266" y="0" type="line"/>
      <point x="266" y="84" type="line"/>
      <point x="259" y="84" type="line" smooth="yes"/>
      <point x="243" y="84"/>
      <point x="208" y="87"/>
      <point x="208" y="94" type="curve" smooth="yes"/>
      <point x="208" y="655" type="line"/>
      <point x="422" y="-6" type="line"/>
      <point x="512" y="-6" type="line"/>
      <point x="727" y="660" type="line"/>
      <point x="727" y="94" type="line" smooth="yes"/>
      <point x="727" y="87"/>
      <point x="687" y="84"/>
      <point x="667" y="84" type="curve" smooth="yes"/>
      <point x="659" y="84" type="line"/>
      <point x="659" y="0" type="line"/>
      <point x="983" y="0" type="line"/>
      <point x="983" y="84" type="line"/>
      <point x="972" y="84" type="line" smooth="yes"/>
      <point x="936" y="84"/>
      <point x="910" y="91"/>
      <point x="910" y="120" type="curve" smooth="yes"/>
      <point x="910" y="590" type="line" smooth="yes"/>
      <point x="910" y="619"/>
      <point x="936" y="626"/>
      <point x="972" y="626" type="curve" smooth="yes"/>
      <point x="983" y="626" type="line"/>
      <point x="983" y="710" type="line"/>
      <point x="659" y="710" type="line"/>
      <point x="517" y="269" type="line"/>
      <point x="381" y="710" type="line"/>
      <point x="45" y="710" type="line"/>
      <point x="45" y="626" type="line"/>
      <point x="56" y="626" type="line" smooth="yes"/>
      <point x="92" y="626"/>
      <point x="119" y="619"/>
      <point x="119" y="590" type="curve" smooth="yes"/>
      <point x="119" y="120" type="line" smooth="yes"/>
      <point x="119" y="91"/>
      <point x="92" y="84"/>
      <point x="56" y="84" type="curve" smooth="yes"/>
      <point x="45" y="84" type="line"/>
    </contour>
  </outline>
</glyph>
<glyph name="N" format="2">
  <advance width="840"/>
  <unicode hex="004E"/>
  <outline>
    <contour>
      <point x="45" y="0" type="line"/>
      <point x="280" y="0" type="line"/>
      <point x="280" y="84" type="line"/>
      <point x="267" y="84" type="line" smooth="yes"/>
      <point x="243" y="84"/>
      <point x="208" y="87"/>
      <point x="208" y="94" type="curve"/>
      <point x="208" y="617" type="line"/>
      <point x="530" y="0" type="line"/>
      <point x="723" y="0" type="line"/>
      <point x="723" y="593" type="line" smooth="yes"/>
      <point x="723" y="622"/>
      <point x="749" y="626"/>
      <point x="785" y="626" type="curve" smooth="yes"/>
      <point x="795" y="626" type="line"/>
      <point x="795" y="710" type="line"/>
      <point x="561" y="710" type="line"/>
      <point x="561" y="626" type="line"/>
      <point x="574" y="626" type="line" smooth="yes"/>
      <point x="597" y="626"/>
      <point x="634" y="623"/>
      <point x="634" y="616" type="curve" smooth="yes"/>
      <point x="634" y="190" type="line"/>
      <point x="358" y="710" type="line"/>
      <point x="45" y="710" type="line"/>
      <point x="45" y="626" type="line"/>
      <point x="56" y="626" type="line" smooth="yes"/>
      <point x="92" y="626"/>
      <point x="119" y="619"/>
      <point x="119" y="590" type="curve" smooth="yes"/>
      <point x="119" y="120" type="line" smooth="yes"/>
      <point x="119" y="91"/>
      <point x="92" y="84"/>
      <point x="56" y="84" type="curve" smooth="yes"/>
      <point x="45" y="84" type="line"/>
    </contour>
  </outline>
</glyph>
<glyph name="P" format="2">
  <advance width="734"/>
  <unicode hex="0050"/>
  <outline>
    <contour>
      <point x="301" y="94" type="curve" smooth="yes"/>
      <point x="301" y="272" type="line"/>
      <point x="442" y="272" type="line" smooth="yes"/>
      <point x="594" y="272"/>
      <point x="697" y="352"/>
      <point x="697" y="496" type="curve" smooth="yes"/>
      <point x="697" y="638"/>
      <point x="601" y="710"/>
      <point x="445" y="710" type="curve" smooth="yes"/>
      <point x="45" y="710" type="line"/>
      <point x="45" y="632" type="line"/>
      <point x="55" y="632" type="line" smooth="yes"/>
      <point x="91" y="632"/>
      <point x="117" y="625"/>
      <point x="117" y="596" type="curve" smooth="yes"/>
      <point x="117" y="114" type="line" smooth="yes"/>
      <point x="117" y="85"/>
      <point x="91" y="78"/>
      <point x="55" y="78" type="curve" smooth="yes"/>
      <point x="45" y="78" type="line"/>
      <point x="45" y="0" type="line"/>
      <point x="392" y="0" type="line"/>
      <point x="392" y="84" type="line"/>
      <point x="369" y="84" type="line" smooth="yes"/>
      <point x="331" y="84"/>
      <point x="301" y="87"/>
    </contour>
    <contour>
      <point x="301" y="626" type="line"/>
      <point x="412" y="626" type="line" smooth="yes"/>
      <point x="480" y="626"/>
      <point x="517" y="587"/>
      <point x="517" y="493" type="curve" smooth="yes"/>
      <point x="517" y="399"/>
      <point x="480" y="355"/>
      <point x="410" y="355" type="curve" smooth="yes"/>
      <point x="301" y="355" type="line"/>
    </contour>
  </outline>
</glyph>
<glyph name="Q" format="2">
  <advance width="838"/>
  <unicode hex="0051"/>
  <outline>
    <contour>
      <point x="791" y="-253" type="curve"/>
      <point x="791" y="-112" type="line"/>
      <point x="745" y="-127"/>
      <point x="689" y="-142"/>
      <point x="624" y="-142" type="curve" smooth="yes"/>
      <point x="519" y="-142"/>
      <point x="479" y="-108"/>
      <point x="469" y="-23" type="curve"/>
      <point x="664" y="-5"/>
      <point x="788" y="122"/>
      <point x="788" y="355" type="curve" smooth="yes"/>
      <point x="788" y="608"/>
      <point x="643" y="735"/>
      <point x="419" y="735" type="curve" smooth="yes"/>
      <point x="195" y="735"/>
      <point x="49" y="608"/>
      <point x="49" y="355" type="curve" smooth="yes"/>
      <point x="49" y="122"/>
      <point x="174" y="-4"/>
      <point x="368" y="-23" type="curve"/>
      <point x="374" y="-198"/>
      <point x="461" y="-268"/>
      <point x="632" y="-268" type="curve" smooth="yes"/>
      <point x="688" y="-268"/>
      <point x="750" y="-261"/>
    </contour>
    <contour>
      <point x="419" y="64" type="curve" smooth="yes"/>
      <point x="297" y="64"/>
      <point x="241" y="142"/>
      <point x="241" y="355" type="curve" smooth="yes"/>
      <point x="241" y="568"/>
      <point x="298" y="646"/>
      <point x="419" y="646" type="curve" smooth="yes"/>
      <point x="541" y="646"/>
      <point x="598" y="568"/>
      <point x="597" y="355" type="curve" smooth="yes"/>
      <point x="595" y="142"/>
      <point x="541" y="64"/>
    </contour>
  </outline>
</glyph>
<glyph name="R" format="2">
  <advance width="811"/>
  <unicode hex="0052"/>
  <anchor x="420.45714285714286" y="741.0" name="top"/>
  <anchor x="420.45714285714286" y="0.0" name="bottom"/>
  <outline>
    <contour>
      <point x="301" y="94" type="curve" smooth="yes"/>
      <point x="301" y="288" type="line"/>
      <point x="410" y="288" type="line"/>
      <point x="551" y="0" type="line"/>
      <point x="779" y="0" type="line"/>
      <point x="779" y="84" type="line"/>
      <point x="770" y="84" type="line" smooth="yes"/>
      <point x="733" y="84"/>
      <point x="708" y="94"/>
      <point x="680" y="145" type="curve" smooth="yes"/>
      <point x="573" y="341" type="line"/>
      <point x="661" y="373"/>
      <point x="712" y="434"/>
      <point x="712" y="520" type="curve" smooth="yes"/>
      <point x="712" y="650"/>
      <point x="620" y="710"/>
      <point x="454" y="710" type="curve" smooth="yes"/>
      <point x="45" y="710" type="line"/>
      <point x="45" y="626" type="line"/>
      <point x="56" y="626" type="line" smooth="yes"/>
      <point x="91" y="626"/>
      <point x="118" y="619"/>
      <point x="118" y="590" type="curve" smooth="yes"/>
      <point x="118" y="120" type="line" smooth="yes"/>
      <point x="118" y="91"/>
      <point x="91" y="84"/>
      <point x="56" y="84" type="curve" smooth="yes"/>
      <point x="45" y="84" type="line"/>
      <point x="45" y="0" type="line"/>
      <point x="384" y="0" type="line"/>
      <point x="384" y="84" type="line"/>
      <point x="369" y="84" type="line" smooth="yes"/>
      <point x="331" y="84"/>
      <point x="301" y="87"/>
    </contour>
    <contour>
      <point x="301" y="630" type="line"/>
      <point x="424" y="630" type="line" smooth="yes"/>
      <point x="493" y="630"/>
      <point x="523" y="590"/>
      <point x="523" y="507" type="curve" smooth="yes"/>
      <point x="523" y="420"/>
      <point x="490" y="367"/>
      <point x="417" y="367" type="curve" smooth="yes"/>
      <point x="301" y="367" type="line"/>
    </contour>
  </outline>
</glyph>
<glyph name="T" format="2">
  <advance width="758"/>
  <unicode hex="0054"/>
  <anchor x="354.17857142857144" y="741.0" name="top"/>
  <anchor x="354.17857142857144" y="0.0" name="bottom"/>
  <outline>
    <contour>
      <point x="287" y="120" type="line" smooth="yes"/>
      <point x="287" y="91"/>
      <point x="256" y="84"/>
      <point x="220" y="84" type="curve" smooth="yes"/>
      <point x="201" y="84" type="line"/>
      <point x="201" y="0" type="line"/>
      <point x="556" y="0" type="line"/>
      <point x="556" y="84" type="line"/>
      <point x="537" y="84" type="line" smooth="yes"/>
      <point x="501" y="84"/>
      <point x="470" y="91"/>
      <point x="470" y="120" type="curve" smooth="yes"/>
      <point x="470" y="624" type="line"/>
      <point x="498" y="624" type="line" smooth="yes"/>
      <point x="584" y="624"/>
      <point x="609" y="607"/>
      <point x="612" y="571" type="curve" smooth="yes"/>
      <point x="625" y="428" type="line"/>
      <point x="718" y="428" type="line"/>
      <point x="718" y="710" type="line"/>
      <point x="39" y="710" type="line"/>
      <point x="39" y="428" type="line"/>
      <point x="133" y="428" type="line"/>
      <point x="145" y="571" type="line" smooth="yes"/>
      <point x="148" y="607"/>
      <point x="174" y="624"/>
      <point x="260" y="624" type="curve" smooth="yes"/>
      <point x="287" y="624" type="line"/>
    </contour>
  </outline>
</glyph>
<glyph name="U" format="2">
  <advance width="798"/>
  <unicode hex="0055"/>
  <anchor x="416.3642857142857" y="741.0" name="top"/>
  <anchor x="472.3642857142857" y="0.0" name="right"/>
  <anchor x="416.3642857142857" y="0.0" name="bottom"/>
  <outline>
    <contour>
      <point x="295" y="262" type="curve" smooth="yes"/>
      <point x="295" y="616" type="line" smooth="yes"/>
      <point x="295" y="623"/>
      <point x="331" y="626"/>
      <point x="358" y="626" type="curve" smooth="yes"/>
      <point x="369" y="626" type="line"/>
      <point x="369" y="710" type="line"/>
      <point x="39" y="710" type="line"/>
      <point x="39" y="626" type="line"/>
      <point x="50" y="626" type="line" smooth="yes"/>
      <point x="85" y="626"/>
      <point x="112" y="619"/>
      <point x="112" y="590" type="curve" smooth="yes"/>
      <point x="112" y="262" type="line" smooth="yes"/>
      <point x="112" y="60"/>
      <point x="231" y="-25"/>
      <point x="408" y="-25" type="curve" smooth="yes"/>
      <point x="565" y="-25"/>
      <point x="687" y="58"/>
      <point x="687" y="262" type="curve" smooth="yes"/>
      <point x="687" y="587" type="line" smooth="yes"/>
      <point x="687" y="618"/>
      <point x="712" y="626"/>
      <point x="749" y="626" type="curve" smooth="yes"/>
      <point x="759" y="626" type="line"/>
      <point x="759" y="710" type="line"/>
      <point x="522" y="710" type="line"/>
      <point x="522" y="626" type="line"/>
      <point x="534" y="626" type="line" smooth="yes"/>
      <point x="566" y="626"/>
      <point x="601" y="620"/>
      <point x="601" y="608" type="curve" smooth="yes"/>
      <point x="601" y="262" type="line" smooth="yes"/>
      <point x="601" y="126"/>
      <point x="540" y="73"/>
      <point x="447" y="73" type="curve" smooth="yes"/>
      <point x="351" y="73"/>
      <point x="295" y="123"/>
    </contour>
  </outline>
</glyph>
<glyph name="V" format="2">
  <advance width="767"/>
  <unicode hex="0056"/>
  <outline>
    <contour>
      <point x="664" y="562" type="line" smooth="yes"/>
      <point x="679" y="612"/>
      <point x="703" y="626"/>
      <point x="735" y="626" type="curve" smooth="yes"/>
      <point x="741" y="626" type="line"/>
      <point x="741" y="710" type="line"/>
      <point x="508" y="710" type="line"/>
      <point x="508" y="626" type="line"/>
      <point x="517" y="626" type="line" smooth="yes"/>
      <point x="566" y="626"/>
      <point x="587" y="616"/>
      <point x="587" y="603" type="curve"/>
      <point x="433" y="85" type="line"/>
      <point x="277" y="615" type="line"/>
      <point x="277" y="622"/>
      <point x="298" y="626"/>
      <point x="346" y="626" type="curve" smooth="yes"/>
      <point x="356" y="626" type="line"/>
      <point x="356" y="710" type="line"/>
      <point x="26" y="710" type="line"/>
      <point x="26" y="626" type="line"/>
      <point x="32" y="626" type="line" smooth="yes"/>
      <point x="67" y="626"/>
      <point x="91" y="613"/>
      <point x="106" y="562" type="curve" smooth="yes"/>
      <point x="281" y="-12" type="line"/>
      <point x="490" y="-12" type="line"/>
    </contour>
  </outline>
</glyph>
<glyph name="W" format="2">
  <advance width="1119"/>
  <unicode hex="0057"/>
  <anchor x="574.2642857142857" y="741.0" name="top"/>
  <outline>
    <contour>
      <point x="26" y="710" type="line"/>
      <point x="26" y="632" type="line"/>
      <point x="34" y="632" type="line" smooth="yes"/>
      <point x="64" y="632"/>
      <point x="83" y="629"/>
      <point x="89" y="605" type="curve" smooth="yes"/>
      <point x="233" y="0" type="line"/>
      <point x="431" y="0" type="line"/>
      <point x="567" y="558" type="line"/>
      <point x="699" y="0" type="line"/>
      <point x="889" y="0" type="line"/>
      <point x="1028" y="587" type="line" smooth="yes"/>
      <point x="1035" y="617"/>
      <point x="1053" y="632"/>
      <point x="1085" y="632" type="curve" smooth="yes"/>
      <point x="1092" y="632" type="line"/>
      <point x="1092" y="710" type="line"/>
      <point x="884" y="710" type="line"/>
      <point x="884" y="632" type="line"/>
      <point x="896" y="632" type="line" smooth="yes"/>
      <point x="928" y="632"/>
      <point x="951" y="622"/>
      <point x="951" y="611" type="curve"/>
      <point x="839" y="152" type="line"/>
      <point x="705" y="710" type="line"/>
      <point x="525" y="710" type="line"/>
      <point x="381" y="144" type="line"/>
      <point x="276" y="621" type="line"/>
      <point x="276" y="628"/>
      <point x="302" y="632"/>
      <point x="331" y="632" type="curve" smooth="yes"/>
      <point x="343" y="632" type="line"/>
      <point x="343" y="710" type="line"/>
    </contour>
  </outline>
</glyph>
<glyph name="X" format="2">
  <advance width="782"/>
  <unicode hex="0058"/>
  <outline>
    <contour>
      <point x="28" y="0" type="line"/>
      <point x="261" y="0" type="line"/>
      <point x="261" y="78" type="line"/>
      <point x="243" y="78" type="line" smooth="yes"/>
      <point x="216" y="78"/>
      <point x="185" y="86"/>
      <point x="185" y="95" type="curve"/>
      <point x="330" y="303" type="line"/>
      <point x="487" y="88" type="line"/>
      <point x="487" y="81"/>
      <point x="454" y="78"/>
      <point x="428" y="78" type="curve" smooth="yes"/>
      <point x="413" y="78" type="line"/>
      <point x="413" y="0" type="line"/>
      <point x="756" y="0" type="line"/>
      <point x="756" y="78" type="line"/>
      <point x="742" y="78" type="line" smooth="yes"/>
      <point x="712" y="78"/>
      <point x="699" y="83"/>
      <point x="678" y="112" type="curve"/>
      <point x="493" y="365" type="line"/>
      <point x="650" y="587" type="line" smooth="yes"/>
      <point x="675" y="621"/>
      <point x="692" y="632"/>
      <point x="722" y="632" type="curve" smooth="yes"/>
      <point x="730" y="632" type="line"/>
      <point x="730" y="710" type="line"/>
      <point x="501" y="710" type="line"/>
      <point x="501" y="632" type="line"/>
      <point x="514" y="632" type="line" smooth="yes"/>
      <point x="541" y="632"/>
      <point x="575" y="625"/>
      <point x="575" y="615" type="curve"/>
      <point x="442" y="423" type="line"/>
      <point x="295" y="623" type="line"/>
      <point x="295" y="629"/>
      <point x="328" y="632"/>
      <point x="354" y="632" type="curve" smooth="yes"/>
      <point x="369" y="632" type="line"/>
      <point x="369" y="710" type="line"/>
      <point x="33" y="710" type="line"/>
      <point x="33" y="632" type="line"/>
      <point x="41" y="632" type="line" smooth="yes"/>
      <point x="70" y="632"/>
      <point x="83" y="627"/>
      <point x="104" y="598" type="curve"/>
      <point x="278" y="362" type="line"/>
      <point x="110" y="124" type="line" smooth="yes"/>
      <point x="85" y="89"/>
      <point x="70" y="78"/>
      <point x="41" y="78" type="curve" smooth="yes"/>
      <point x="28" y="78" type="line"/>
    </contour>
  </outline>
</glyph>
<glyph name="Y" format="2">
  <advance width="739"/>
  <unicode hex="0059"/>
  <anchor x="354.00714285714287" y="741.0" name="top"/>
  <anchor x="354.00714285714287" y="0.0" name="bottom"/>
  <outline>
    <contour>
      <point x="551" y="84" type="line"/>
      <point x="531" y="84" type="line" smooth="yes"/>
      <point x="495" y="84"/>
      <point x="466" y="91"/>
      <point x="466" y="120" type="curve" smooth="yes"/>
      <point x="466" y="272" type="line"/>
      <point x="636" y="568" type="line" smooth="yes"/>
      <point x="659" y="608"/>
      <point x="674" y="626"/>
      <point x="704" y="626" type="curve" smooth="yes"/>
      <point x="712" y="626" type="line"/>
      <point x="712" y="710" type="line"/>
      <point x="490" y="710" type="line"/>
      <point x="490" y="626" type="line"/>
      <point x="499" y="626" type="line" smooth="yes"/>
      <point x="538" y="626"/>
      <point x="561" y="616"/>
      <point x="561" y="603" type="curve"/>
      <point x="421" y="345" type="line"/>
      <point x="275" y="615" type="line"/>
      <point x="275" y="622"/>
      <point x="297" y="626"/>
      <point x="336" y="626" type="curve" smooth="yes"/>
      <point x="348" y="626" type="line"/>
      <point x="348" y="710" type="line"/>
      <point x="26" y="710" type="line"/>
      <point x="26" y="626" type="line"/>
      <point x="34" y="626" type="line" smooth="yes"/>
      <point x="68" y="626"/>
      <point x="82" y="610"/>
      <point x="104" y="573" type="curve" smooth="yes"/>
      <point x="282" y="268" type="line"/>
      <point x="282" y="120" type="line" smooth="yes"/>
      <point x="282" y="91"/>
      <point x="253" y="84"/>
      <point x="216" y="84" type="curve" smooth="yes"/>
      <point x="197" y="84" type="line"/>
      <point x="197" y="0" type="line"/>
      <point x="551" y="0" type="line"/>
    </contour>
  </outline>
</glyph>
<glyph name="a" format="2">
  <advance width="665"/>
  <unicode hex="0061"/>
  <outline>
    <contour>
      <point x="428" y="0" type="line"/>
      <point x="636" y="0" type="line"/>
      <point x="636" y="80" type="line"/>
      <point x="627" y="82" type="line" smooth="yes"/>
      <point x="590" y="90"/>
      <point x="572" y="94"/>
      <point x="572" y="115" type="curve" smooth="yes"/>
      <point x="572" y="416" type="line" smooth="yes"/>
      <point x="572" y="527"/>
      <point x="486" y="579"/>
      <point x="327" y="579" type="curve" smooth="yes"/>
      <point x="197" y="579"/>
      <point x="112" y="541"/>
      <point x="80" y="523" type="curve"/>
      <point x="80" y="377" type="line"/>
      <point x="224" y="377" type="line"/>
      <point x="224" y="486" type="line"/>
      <point x="247" y="491"/>
      <point x="277" y="494"/>
      <point x="313" y="494" type="curve" smooth="yes"/>
      <point x="393" y="494"/>
      <point x="401" y="470"/>
      <point x="401" y="434" type="curve" smooth="yes"/>
      <point x="401" y="345" type="line"/>
      <point x="127" y="301"/>
      <point x="51" y="252"/>
      <point x="51" y="136" type="curve" smooth="yes"/>
      <point x="51" y="31"/>
      <point x="106" y="-12"/>
      <point x="224" y="-12" type="curve" smooth="yes"/>
      <point x="308" y="-12"/>
      <point x="360" y="21"/>
      <point x="407" y="106" type="curve"/>
    </contour>
    <contour>
      <point x="211" y="146" type="curve" smooth="yes"/>
      <point x="211" y="202"/>
      <point x="222" y="241"/>
      <point x="401" y="275" type="curve"/>
      <point x="401" y="151" type="line"/>
      <point x="353" y="87"/>
      <point x="319" y="72"/>
      <point x="283" y="72" type="curve" smooth="yes"/>
      <point x="236" y="72"/>
      <point x="211" y="88"/>
    </contour>
  </outline>
</glyph>
<glyph name="j" format="2">
  <advance width="388"/>
  <unicode hex="006A"/>
  <anchor x="159.02857142857144" y="551.0" name="top"/>
  <outline>
    <contour>
      <point x="198" y="634" type="curve" smooth="yes"/>
      <point x="261" y="634"/>
      <point x="300" y="662"/>
      <point x="300" y="724" type="curve" smooth="yes"/>
      <point x="300" y="784"/>
      <point x="261" y="813"/>
      <point x="198" y="813" type="curve" smooth="yes"/>
      <point x="133" y="813"/>
      <point x="94" y="784"/>
      <point x="94" y="724" type="curve" smooth="yes"/>
      <point x="94" y="662"/>
      <point x="133" y="634"/>
    </contour>
    <contour>
      <point x="119" y="-60" type="line" smooth="yes"/>
      <point x="119" y="-137"/>
      <point x="81" y="-162"/>
      <point x="26" y="-162" type="curve" smooth="yes"/>
      <point x="-11" y="-162"/>
      <point x="-47" y="-154"/>
      <point x="-67" y="-148" type="curve"/>
      <point x="-67" y="-235" type="line"/>
      <point x="-52" y="-241"/>
      <point x="-8" y="-250"/>
      <point x="53" y="-250" type="curve" smooth="yes"/>
      <point x="195" y="-250"/>
      <point x="293" y="-203"/>
      <point x="293" y="-54" type="curve" smooth="yes"/>
      <point x="293" y="569" type="line"/>
      <point x="43" y="569" type="line"/>
      <point x="43" y="486" type="line"/>
      <point x="55" y="484" type="line" smooth="yes"/>
      <point x="92" y="478"/>
      <point x="119" y="472"/>
      <point x="119" y="451" type="curve" smooth="yes"/>
    </contour>
  </outline>
</glyph>
<glyph name="k" format="2">
  <advance width="750"/>
  <unicode hex="006B"/>
  <anchor x="339.54285714285714" y="0.0" name="bottom"/>
  <outline>
    <contour>
      <point x="280" y="780" type="line"/>
      <point x="42" y="780" type="line"/>
      <point x="42" y="700" type="line"/>
      <point x="51" y="698" type="line" smooth="yes"/>
      <point x="88" y="690"/>
      <point x="106" y="686"/>
      <point x="106" y="665" type="curve" smooth="yes"/>
      <point x="106" y="139" type="line" smooth="yes"/>
      <point x="106" y="85"/>
      <point x="85" y="70"/>
      <point x="45" y="70" type="curve" smooth="yes"/>
      <point x="42" y="70" type="line"/>
      <point x="42" y="0" type="line"/>
      <point x="330" y="0" type="line"/>
      <point x="330" y="70" type="line"/>
      <point x="324" y="70" type="line" smooth="yes"/>
      <point x="306" y="70"/>
      <point x="280" y="72"/>
      <point x="280" y="78" type="curve" smooth="yes"/>
    </contour>
    <contour>
      <point x="729" y="0" type="line"/>
      <point x="729" y="70" type="line"/>
      <point x="722" y="70" type="line" smooth="yes"/>
      <point x="693" y="70"/>
      <point x="673" y="75"/>
      <point x="649" y="107" type="curve" smooth="yes"/>
      <point x="462" y="346" type="line"/>
      <point x="587" y="463" type="line" smooth="yes"/>
      <point x="618" y="493"/>
      <point x="638" y="499"/>
      <point x="683" y="499" type="curve" smooth="yes"/>
      <point x="703" y="499" type="line"/>
      <point x="703" y="569" type="line"/>
      <point x="413" y="569" type="line"/>
      <point x="413" y="499" type="line"/>
      <point x="429" y="499" type="line" smooth="yes"/>
      <point x="465" y="499"/>
      <point x="505" y="492"/>
      <point x="505" y="485" type="curve"/>
      <point x="314" y="306" type="line"/>
      <point x="314" y="292" type="line"/>
      <point x="472" y="80" type="line"/>
      <point x="472" y="74"/>
      <point x="450" y="70"/>
      <point x="427" y="70" type="curve" smooth="yes"/>
      <point x="420" y="70" type="line"/>
      <point x="420" y="0" type="line"/>
    </contour>
  </outline>
</glyph>
<glyph name="l" format="2">
  <advance width="377"/>
  <unicode hex="006C"/>
  <anchor x="188.54285714285714" y="742.8214285714286" name="top"/>
  <anchor x="314.54285714285714" y="731.8214285714286" name="right"/>
  <anchor x="378.54285714285714" y="391.0" name="mid"/>
  <anchor x="192.54285714285714" y="0.0" name="bottom"/>
  <outline>
    <contour>
      <point x="283" y="780" type="line"/>
      <point x="45" y="780" type="line"/>
      <point x="45" y="700" type="line"/>
      <point x="54" y="698" type="line" smooth="yes"/>
      <point x="91" y="690"/>
      <point x="109" y="686"/>
      <point x="109" y="665" type="curve" smooth="yes"/>
      <point x="109" y="139" type="line" smooth="yes"/>
      <point x="109" y="85"/>
      <point x="89" y="70"/>
      <point x="48" y="70" type="curve" smooth="yes"/>
      <point x="45" y="70" type="line"/>
      <point x="45" y="0" type="line"/>
      <point x="347" y="0" type="line"/>
      <point x="347" y="70" type="line"/>
      <point x="344" y="70" type="line" smooth="yes"/>
      <point x="304" y="70"/>
      <point x="283" y="85"/>
      <point x="283" y="139" type="curve" smooth="yes"/>
    </contour>
  </outline>
</glyph>
<glyph name="m" format="2">
  <advance width="1086"/>
  <unicode hex="006D"/>
  <outline>
    <contour>
      <point x="42" y="0" type="line"/>
      <point x="333" y="0" type="line"/>
      <point x="333" y="70" type="line"/>
      <point x="328" y="70" type="line" smooth="yes"/>
      <point x="309" y="70"/>
      <point x="280" y="72"/>
      <point x="280" y="78" type="curve" smooth="yes"/>
      <point x="280" y="391" type="line"/>
      <point x="327" y="446"/>
      <point x="367" y="474"/>
      <point x="407" y="474" type="curve" smooth="yes"/>
      <point x="449" y="474"/>
      <point x="464" y="451"/>
      <point x="464" y="412" type="curve" smooth="yes"/>
      <point x="464" y="78" type="line" smooth="yes"/>
      <point x="464" y="72"/>
      <point x="435" y="70"/>
      <point x="415" y="70" type="curve" smooth="yes"/>
      <point x="411" y="70" type="line"/>
      <point x="411" y="0" type="line"/>
      <point x="690" y="0" type="line"/>
      <point x="690" y="70" type="line"/>
      <point x="686" y="70" type="line" smooth="yes"/>
      <point x="666" y="70"/>
      <point x="637" y="72"/>
      <point x="637" y="78" type="curve" smooth="yes"/>
      <point x="637" y="391" type="line"/>
      <point x="685" y="446"/>
      <point x="724" y="474"/>
      <point x="765" y="474" type="curve" smooth="yes"/>
      <point x="807" y="474"/>
      <point x="821" y="451"/>
      <point x="821" y="412" type="curve" smooth="yes"/>
      <point x="821" y="78" type="line" smooth="yes"/>
      <point x="821" y="72"/>
      <point x="792" y="70"/>
      <point x="773" y="70" type="curve" smooth="yes"/>
      <point x="768" y="70" type="line"/>
      <point x="768" y="0" type="line"/>
      <point x="1059" y="0" type="line"/>
      <point x="1059" y="70" type="line"/>
      <point x="1055" y="70" type="line" smooth="yes"/>
      <point x="1015" y="70"/>
      <point x="995" y="85"/>
      <point x="995" y="139" type="curve" smooth="yes"/>
      <point x="995" y="425" type="line" smooth="yes"/>
      <point x="995" y="525"/>
      <point x="944" y="581"/>
      <point x="844" y="581" type="curve" smooth="yes"/>
      <point x="763" y="581"/>
      <point x="688" y="528"/>
      <point x="635" y="455" type="curve"/>
      <point x="626" y="536"/>
      <point x="576" y="581"/>
      <point x="486" y="581" type="curve" smooth="yes"/>
      <point x="404" y="581"/>
      <point x="328" y="526"/>
      <point x="275" y="450" type="curve"/>
      <point x="253" y="569" type="line"/>
      <point x="42" y="569" type="line"/>
      <point x="42" y="486" type="line"/>
      <point x="51" y="484" type="line" smooth="yes"/>
      <point x="88" y="476"/>
      <point x="106" y="472"/>
      <point x="106" y="451" type="curve" smooth="yes"/>
      <point x="106" y="139" type="line" smooth="yes"/>
      <point x="106" y="85"/>
      <point x="85" y="70"/>
      <point x="45" y="70" type="curve" smooth="yes"/>
      <point x="42" y="70" type="line"/>
    </contour>
  </outline>
</glyph>
<glyph name="n" format="2">
  <advance width="742"/>
  <unicode hex="006E"/>
  <anchor x="353.5357142857143" y="551.0" name="top"/>
  <anchor x="361.5357142857143" y="0.0" name="bottom"/>
  <outline>
    <contour>
      <point x="42" y="0" type="line"/>
      <point x="333" y="0" type="line"/>
      <point x="333" y="70" type="line"/>
      <point x="328" y="70" type="line" smooth="yes"/>
      <point x="309" y="70"/>
      <point x="280" y="72"/>
      <point x="280" y="78" type="curve" smooth="yes"/>
      <point x="280" y="390" type="line"/>
      <point x="329" y="445"/>
      <point x="372" y="474"/>
      <point x="415" y="474" type="curve" smooth="yes"/>
      <point x="460" y="474"/>
      <point x="476" y="451"/>
      <point x="476" y="412" type="curve" smooth="yes"/>
      <point x="476" y="78" type="line" smooth="yes"/>
      <point x="476" y="72"/>
      <point x="447" y="70"/>
      <point x="427" y="70" type="curve" smooth="yes"/>
      <point x="423" y="70" type="line"/>
      <point x="423" y="0" type="line"/>
      <point x="713" y="0" type="line"/>
      <point x="713" y="70" type="line"/>
      <point x="709" y="70" type="line" smooth="yes"/>
      <point x="669" y="70"/>
      <point x="649" y="85"/>
      <point x="649" y="139" type="curve" smooth="yes"/>
      <point x="649" y="425" type="line" smooth="yes"/>
      <point x="649" y="525"/>
      <point x="596" y="581"/>
      <point x="493" y="581" type="curve" smooth="yes"/>
      <point x="408" y="581"/>
      <point x="328" y="526"/>
      <point x="275" y="448" type="curve"/>
      <point x="253" y="569" type="line"/>
      <point x="42" y="569" type="line"/>
      <point x="42" y="486" type="line"/>
      <point x="51" y="484" type="line" smooth="yes"/>
      <point x="88" y="476"/>
      <point x="106" y="472"/>
      <point x="106" y="451" type="curve" smooth="yes"/>
      <point x="106" y="139" type="line" smooth="yes"/>
      <point x="106" y="85"/>
      <point x="85" y="70"/>
      <point x="45" y="70" type="curve" smooth="yes"/>
      <point x="42" y="70" type="line"/>
    </contour>
  </outline>
</glyph>
<glyph name="p" format="2">
  <advance width="749"/>
  <unicode hex="0070"/>
  <outline>
    <contour>
      <point x="364" y="-223" type="line"/>
      <point x="364" y="-153" type="line"/>
      <point x="352" y="-153" type="line" smooth="yes"/>
      <point x="313" y="-153"/>
      <point x="280" y="-151"/>
      <point x="280" y="-145" type="curve" smooth="yes"/>
      <point x="280" y="91" type="line"/>
      <point x="321" y="26"/>
      <point x="378" y="-12"/>
      <point x="455" y="-12" type="curve" smooth="yes"/>
      <point x="618" y="-12"/>
      <point x="707" y="118"/>
      <point x="707" y="290" type="curve" smooth="yes"/>
      <point x="707" y="461"/>
      <point x="629" y="580"/>
      <point x="468" y="580" type="curve" smooth="yes"/>
      <point x="376" y="580"/>
      <point x="317" y="534"/>
      <point x="272" y="455" type="curve"/>
      <point x="251" y="569" type="line"/>
      <point x="42" y="569" type="line"/>
      <point x="42" y="486" type="line"/>
      <point x="51" y="484" type="line" smooth="yes"/>
      <point x="88" y="476"/>
      <point x="106" y="472"/>
      <point x="106" y="451" type="curve" smooth="yes"/>
      <point x="106" y="-84" type="line" smooth="yes"/>
      <point x="106" y="-138"/>
      <point x="86" y="-153"/>
      <point x="47" y="-153" type="curve" smooth="yes"/>
      <point x="44" y="-153" type="line"/>
      <point x="44" y="-223" type="line"/>
    </contour>
    <contour>
      <point x="417" y="477" type="curve" smooth="yes"/>
      <point x="502" y="477"/>
      <point x="528" y="422"/>
      <point x="528" y="290" type="curve" smooth="yes"/>
      <point x="528" y="151"/>
      <point x="491" y="91"/>
      <point x="406" y="91" type="curve" smooth="yes"/>
      <point x="354" y="91"/>
      <point x="321" y="114"/>
      <point x="280" y="159" type="curve"/>
      <point x="280" y="401" type="line"/>
      <point x="327" y="457"/>
      <point x="364" y="477"/>
    </contour>
  </outline>
</glyph>
<glyph name="q" format="2">
  <advance width="730"/>
  <unicode hex="0071"/>
  <outline>
    <contour>
      <point x="281" y="-12" type="curve" smooth="yes"/>
      <point x="368" y="-12"/>
      <point x="425" y="29"/>
      <point x="470" y="100" type="curve"/>
      <point x="470" y="-145" type="line" smooth="yes"/>
      <point x="470" y="-151"/>
      <point x="436" y="-153"/>
      <point x="397" y="-153" type="curve" smooth="yes"/>
      <point x="385" y="-153" type="line"/>
      <point x="385" y="-223" type="line"/>
      <point x="706" y="-223" type="line"/>
      <point x="706" y="-153" type="line"/>
      <point x="702" y="-153" type="line" smooth="yes"/>
      <point x="663" y="-153"/>
      <point x="643" y="-138"/>
      <point x="643" y="-84" type="curve" smooth="yes"/>
      <point x="643" y="576" type="line"/>
      <point x="539" y="576" type="line"/>
      <point x="483" y="452" type="line"/>
      <point x="441" y="532"/>
      <point x="379" y="579"/>
      <point x="294" y="579" type="curve" smooth="yes"/>
      <point x="131" y="579"/>
      <point x="42" y="449"/>
      <point x="42" y="278" type="curve" smooth="yes"/>
      <point x="42" y="107"/>
      <point x="120" y="-12"/>
    </contour>
    <contour>
      <point x="220" y="278" type="curve" smooth="yes"/>
      <point x="220" y="417"/>
      <point x="257" y="477"/>
      <point x="343" y="477" type="curve" smooth="yes"/>
      <point x="395" y="477"/>
      <point x="428" y="453"/>
      <point x="470" y="408" type="curve"/>
      <point x="470" y="167" type="line"/>
      <point x="422" y="110"/>
      <point x="385" y="91"/>
      <point x="332" y="91" type="curve" smooth="yes"/>
      <point x="247" y="91"/>
      <point x="220" y="145"/>
    </contour>
  </outline>
</glyph>
<glyph name="t" format="2">
  <advance width="537"/>
  <unicode hex="0074"/>
  <anchor x="216.35" y="675.0" name="top"/>
  <anchor x="394.35" y="681.0" name="right"/>
  <anchor x="332.35" y="0.0" name="bottom"/>
  <outline>
    <contour>
      <point x="301" y="164" type="curve" smooth="yes"/>
      <point x="301" y="480" type="line"/>
      <point x="479" y="480" type="line"/>
      <point x="479" y="569" type="line"/>
      <point x="301" y="569" type="line"/>
      <point x="301" y="734" type="line"/>
      <point x="135" y="734" type="line"/>
      <point x="135" y="636" type="line"/>
      <point x="135" y="572"/>
      <point x="99" y="564"/>
      <point x="41" y="564" type="curve" smooth="yes"/>
      <point x="29" y="564" type="line"/>
      <point x="29" y="480" type="line"/>
      <point x="128" y="480" type="line"/>
      <point x="128" y="152" type="line" smooth="yes"/>
      <point x="128" y="18"/>
      <point x="217" y="-12"/>
      <point x="338" y="-12" type="curve" smooth="yes"/>
      <point x="391" y="-12"/>
      <point x="444" y="-5"/>
      <point x="473" y="2" type="curve"/>
      <point x="473" y="94" type="line"/>
      <point x="466" y="94"/>
      <point x="432" y="89"/>
      <point x="394" y="89" type="curve" smooth="yes"/>
      <point x="336" y="89"/>
      <point x="301" y="101"/>
    </contour>
  </outline>
</glyph>
<glyph name="w" format="2">
  <advance width="1042"/>
  <unicode hex="0077"/>
  <anchor x="496.7142857142857" y="551.0" name="top"/>
  <outline>
    <contour>
      <point x="635" y="-13" type="line"/>
      <point x="813" y="-13" type="line"/>
      <point x="936" y="426" type="line" smooth="yes"/>
      <point x="949" y="472"/>
      <point x="968" y="485"/>
      <point x="1008" y="485" type="curve" smooth="yes"/>
      <point x="1016" y="485" type="line"/>
      <point x="1016" y="569" type="line"/>
      <point x="789" y="569" type="line"/>
      <point x="789" y="490" type="line"/>
      <point x="796" y="490" type="line" smooth="yes"/>
      <point x="831" y="490"/>
      <point x="857" y="479"/>
      <point x="857" y="469" type="curve"/>
      <point x="764" y="110" type="line"/>
      <point x="639" y="569" type="line"/>
      <point x="485" y="569" type="line"/>
      <point x="352" y="118" type="line"/>
      <point x="263" y="482" type="line"/>
      <point x="263" y="487"/>
      <point x="292" y="490"/>
      <point x="326" y="490" type="curve" smooth="yes"/>
      <point x="334" y="490" type="line"/>
      <point x="334" y="569" type="line"/>
      <point x="26" y="569" type="line"/>
      <point x="26" y="485" type="line"/>
      <point x="33" y="485" type="line" smooth="yes"/>
      <point x="73" y="485"/>
      <point x="94" y="474"/>
      <point x="106" y="429" type="curve" smooth="yes"/>
      <point x="219" y="-13" type="line"/>
      <point x="398" y="-13" type="line"/>
      <point x="518" y="401" type="line"/>
    </contour>
  </outline>
</glyph>
<glyph name="x" format="2">
  <advance width="727"/>
  <unicode hex="0078"/>
  <outline>
    <contour>
      <point x="22" y="0" type="line"/>
      <point x="264" y="0" type="line"/>
      <point x="264" y="73" type="line"/>
      <point x="261" y="73" type="line"/>
      <point x="225" y="73"/>
      <point x="196" y="85"/>
      <point x="196" y="98" type="curve"/>
      <point x="303" y="243" type="line"/>
      <point x="431" y="80" type="line"/>
      <point x="431" y="74"/>
      <point x="406" y="73"/>
      <point x="377" y="73" type="curve" smooth="yes"/>
      <point x="374" y="73" type="line"/>
      <point x="374" y="0" type="line"/>
      <point x="701" y="0" type="line"/>
      <point x="701" y="76" type="line"/>
      <point x="696" y="76" type="line"/>
      <point x="657" y="76"/>
      <point x="643" y="87"/>
      <point x="622" y="109" type="curve" smooth="yes"/>
      <point x="476" y="285" type="line"/>
      <point x="614" y="459" type="line" smooth="yes"/>
      <point x="634" y="484"/>
      <point x="657" y="490"/>
      <point x="683" y="490" type="curve"/>
      <point x="691" y="490" type="line"/>
      <point x="691" y="569" type="line"/>
      <point x="458" y="569" type="line"/>
      <point x="458" y="495" type="line"/>
      <point x="462" y="495" type="line"/>
      <point x="497" y="495"/>
      <point x="522" y="484"/>
      <point x="522" y="472" type="curve"/>
      <point x="419" y="341" type="line"/>
      <point x="305" y="488" type="line"/>
      <point x="305" y="494"/>
      <point x="334" y="495"/>
      <point x="364" y="495" type="curve" smooth="yes"/>
      <point x="366" y="495" type="line"/>
      <point x="366" y="569" type="line"/>
      <point x="37" y="569" type="line"/>
      <point x="37" y="490" type="line"/>
      <point x="44" y="490" type="line"/>
      <point x="81" y="490"/>
      <point x="99" y="479"/>
      <point x="117" y="456" type="curve" smooth="yes"/>
      <point x="245" y="299" type="line"/>
      <point x="106" y="118" type="line" smooth="yes"/>
      <point x="82" y="87"/>
      <point x="64" y="76"/>
      <point x="25" y="76" type="curve"/>
      <point x="22" y="76" type="line"/>
    </contour>
  </outline>
</glyph>
<glyph name="y" format="2">
  <advance width="719"/>
  <unicode hex="0079"/>
  <anchor x="348.0857142857143" y="551.0" name="top"/>
  <anchor x="361.0857142857143" y="-211.0" name="bottom"/>
  <outline>
    <contour>
      <point x="432" y="15" type="curve" smooth="yes"/>
      <point x="612" y="431" type="line" smooth="yes"/>
      <point x="631" y="473"/>
      <point x="647" y="485"/>
      <point x="683" y="485" type="curve"/>
      <point x="694" y="485" type="line"/>
      <point x="694" y="569" type="line"/>
      <point x="463" y="569" type="line"/>
      <point x="463" y="490" type="line"/>
      <point x="469" y="490" type="line" smooth="yes"/>
      <point x="505" y="490"/>
      <point x="532" y="480"/>
      <point x="532" y="470" type="curve"/>
      <point x="402" y="160" type="line"/>
      <point x="266" y="482" type="line"/>
      <point x="266" y="487"/>
      <point x="296" y="490"/>
      <point x="328" y="490" type="curve" smooth="yes"/>
      <point x="336" y="490" type="line"/>
      <point x="336" y="569" type="line"/>
      <point x="26" y="569" type="line"/>
      <point x="26" y="485" type="line"/>
      <point x="36" y="485" type="line"/>
      <point x="74" y="485"/>
      <point x="88" y="476"/>
      <point x="105" y="439" type="curve" smooth="yes"/>
      <point x="308" y="-23" type="line"/>
      <point x="269" y="-109"/>
      <point x="227" y="-133"/>
      <point x="157" y="-133" type="curve" smooth="yes"/>
      <point x="96" y="-133"/>
      <point x="40" y="-115"/>
      <point x="34" y="-113" type="curve"/>
      <point x="34" y="-225" type="line"/>
      <point x="52" y="-235"/>
      <point x="100" y="-245"/>
      <point x="151" y="-245" type="curve" smooth="yes"/>
      <point x="295" y="-245"/>
      <point x="348" y="-178"/>
    </contour>
  </outline>
</glyph>
<glyph name="z" format="2">
  <advance width="599"/>
  <unicode hex="007A"/>
  <anchor x="285.35714285714283" y="551.0" name="top"/>
  <anchor x="307.35714285714283" y="0.0" name="bottom"/>
  <outline>
    <contour>
      <point x="564" y="214" type="line"/>
      <point x="483" y="214" type="line"/>
      <point x="470" y="127" type="line" smooth="yes"/>
      <point x="465" y="90"/>
      <point x="441" y="84"/>
      <point x="379" y="84" type="curve" smooth="yes"/>
      <point x="219" y="84" type="line"/>
      <point x="546" y="448" type="line"/>
      <point x="546" y="569" type="line"/>
      <point x="52" y="569" type="line"/>
      <point x="52" y="366" type="line"/>
      <point x="131" y="366" type="line"/>
      <point x="143" y="442" type="line" smooth="yes"/>
      <point x="149" y="479"/>
      <point x="171" y="485"/>
      <point x="234" y="485" type="curve" smooth="yes"/>
      <point x="379" y="485" type="line"/>
      <point x="49" y="125" type="line"/>
      <point x="49" y="0" type="line"/>
      <point x="564" y="0" type="line"/>
    </contour>
  </outline>
</glyph>
<glyph name="quoteright" format="2">
  <advance width="341"/>
  <unicode hex="2019"/>
  <outline>
    <contour>
      <point x="111" y="419" type="line"/>
      <point x="209" y="457"/>
      <point x="289" y="519"/>
      <point x="289" y="668" type="curve" smooth="yes"/>
      <point x="289" y="752"/>
      <point x="246" y="786"/>
      <point x="176" y="786" type="curve" smooth="yes"/>
      <point x="108" y="786"/>
      <point x="73" y="754"/>
      <point x="73" y="703" type="curve" smooth="yes"/>
      <point x="73" y="651"/>
      <point x="104" y="626"/>
      <point x="161" y="626" type="curve" smooth="yes"/>
      <point x="172" y="626"/>
      <point x="185" y="628"/>
      <point x="197" y="631" type="curve"/>
      <point x="191" y="542"/>
      <point x="137" y="523"/>
      <point x="48" y="498" type="curve"/>
    </contour>
  </outline>
</glyph>
<glyph name="quotedblright" format="2">
  <advance width="622"/>
  <unicode hex="201D"/>
  <outline>
    <contour>
      <point x="110.80714285714285" y="418.9642857142857" type="line"/>
      <point x="208.79285714285714" y="457.0571428571429"/>
      <point x="288.85" y="518.9571428571429"/>
      <point x="288.85" y="668.4714285714285" type="curve" smooth="yes"/>
      <point x="288.85" y="752.0"/>
      <point x="245.77857142857144" y="786.3571428571429"/>
      <point x="176.15714285714284" y="786.3571428571429" type="curve" smooth="yes"/>
      <point x="108.17857142857143" y="786.3571428571429"/>
      <point x="73.00714285714285" y="754.3642857142858"/>
      <point x="73.00714285714285" y="703.1071428571429" type="curve" smooth="yes"/>
      <point x="73.00714285714285" y="651.3928571428571"/>
      <point x="103.82142857142857" y="626.4"/>
      <point x="160.89285714285714" y="626.4" type="curve" smooth="yes"/>
      <point x="180.43571428571428" y="626.4"/>
      <point x="204.15714285714284" y="630.0357142857143"/>
      <point x="223.06428571428572" y="644.3071428571428" type="curve"/>
      <point x="212.24285714285713" y="650.7571428571429"/>
      <point x="202.79285714285714" y="651.6642857142857"/>
      <point x="197.88571428571427" y="650.3" type="curve" smooth="yes"/>
      <point x="197.88571428571427" y="544.4928571428571"/>
      <point x="142.62142857142857" y="524.2142857142857"/>
      <point x="48.17857142857143" y="498.0285714285714" type="curve"/>
    </contour>
    <contour>
      <point x="391.9571428571428" y="418.9642857142857" type="line"/>
      <point x="489.9428571428571" y="457.0571428571429"/>
      <point x="570.0" y="518.9571428571429"/>
      <point x="570.0" y="668.4714285714285" type="curve" smooth="yes"/>
      <point x="570.0" y="752.0"/>
      <point x="526.9285714285714" y="786.3571428571429"/>
      <point x="457.3071428571428" y="786.3571428571429" type="curve" smooth="yes"/>
      <point x="389.3285714285714" y="786.3571428571429"/>
      <point x="354.15714285714284" y="754.3642857142858"/>
      <point x="354.15714285714284" y="703.1071428571429" type="curve" smooth="yes"/>
      <point x="354.15714285714284" y="651.3928571428571"/>
      <point x="384.97142857142853" y="626.4"/>
      <point x="442.0428571428571" y="626.4" type="curve" smooth="yes"/>
      <point x="461.5857142857143" y="626.4"/>
      <point x="485.3071428571428" y="630.0357142857143"/>
      <point x="504.21428571428567" y="644.3071428571428" type="curve"/>
      <point x="493.3928571428571" y="650.7571428571429"/>
      <point x="483.9428571428571" y="651.6642857142857"/>
      <point x="479.0357142857142" y="650.3" type="curve" smooth="yes"/>
      <point x="479.0357142857142" y="544.4928571428571"/>
      <point x="423.77142857142854" y="524.2142857142857"/>
      <point x="329.3285714285714" y="498.0285714285714" type="curve"/>
    </contour>
  </outline>
</glyph>
